<?xml version="1.0" encoding="UTF-8"?>
<svg width="86px" height="86px" viewBox="0 0 86 86" version="1.1" xmlns="http://www.w3.org/2000/svg" xmlns:xlink="http://www.w3.org/1999/xlink">
    <path d="M42.8807111,0.3 C19.2987111,0.3 0.180711065,19.418 0.180711065,43 L0.180711065,84.277 C0.180711065,85.063 0.817711065,85.7 1.60371107,85.7 L42.8807111,85.7 C66.4657111,85.7 85.5807111,66.582 85.5807111,43 C85.5807111,19.418 66.4657111,0.3 42.8807111,0.3 Z" id="bg" fill-opacity="0.204185" fill="#FFFFFF" fill-rule="nonzero"></path>
    <path d="M54.9921755,55.5558621 C53.5329515,63.9093837 49.5773026,71.9123191 43.1248603,78.3647614 L43.2216841,78.2650781 L13.9376137,107.552008 C13.7560359,107.733586 13.537627,107.855841 13.3064527,107.918775 L43.9314008,55.5560781 Z" id="8" fill-opacity="0.1" fill="#FFFFFF" transform="translate(34.148369, 81.737666) rotate(45.000000) translate(-34.148369, -81.737666) "></path>
    <path d="M50.1281734,40.5461531 L19.501695,92.9092651 C19.2577401,92.9753853 18.9996353,92.9754747 18.7556422,92.9095332 L-11.8718266,40.5461531 L50.1281734,40.5461531 Z" id="7" fill-opacity="0.45" fill="#FFFFFF" transform="translate(19.128173, 66.752538) rotate(45.000000) translate(-19.128173, -66.752538) "></path>
    <path d="M-5.64009666,25.5510187 L24.9863817,77.9141308 C24.7546411,77.851321 24.5356688,77.728927 24.3536904,77.5469486 L24.364,77.5560187 L-4.93182113,48.261123 C-11.3256134,41.8263922 -15.24838,33.8621952 -16.700121,25.5507256 L-5.64009666,25.5510187 Z" id="6" fill-opacity="0.23" fill="#FFFFFF" transform="translate(4.143310, 51.732607) rotate(45.000000) translate(-4.143310, -51.732607) "></path>
    <path d="M63.9973672,49.8187076 L79.5585648,65.9774132 C79.8504348,69.5924145 79.6836549,73.2375041 79.0581961,76.8181816 L67.9973672,76.8187076 L63.9973672,49.8187076 Z" id="5" fill-opacity="0.18" fill="#FFFFFF" transform="translate(71.847617, 63.318790) rotate(45.000000) translate(-71.847617, -63.318790) "></path>
    <polygon id="4" fill-opacity="0.4" fill="#FFFFFF" transform="translate(59.579196, 48.221825) scale(-1, 1) rotate(-45.000000) translate(-59.579196, -48.221825) " points="48.0791959 36.7218254 44.0791959 63.7218254 75.0791959 32.7218254"></polygon>
    <polygon id="3" fill-opacity="0.67" fill="#FFFFFF" transform="translate(48.619041, 37.261670) rotate(45.000000) translate(-48.619041, -37.261670) " points="17.6190408 52.7616703 48.6190408 21.7616703 79.6190408 52.7616703"></polygon>
    <polygon id="2" fill-opacity="0.85" fill="#FFFFFF" transform="translate(37.658886, 26.301515) rotate(45.000000) translate(-37.658886, -26.301515) " points="26.1588857 14.8015152 22.1588857 41.8015152 53.1588857 10.8015152"></polygon>
    <path d="M30.4119712,0.533258799 L26.4119712,27.5332588 L15.351893,27.5326572 C14.7264279,23.9516065 14.5596765,20.3060917 14.8516387,16.6906683 L30.4119712,0.533258799 Z" id="1" fill-opacity="0.6" fill="#FFFFFF" transform="translate(22.562119, 14.033459) rotate(45.000000) translate(-22.562119, -14.033459) "></path>
</svg>