<?xml version="1.0" encoding="UTF-8"?>
<svg width="86px" height="86px" viewBox="0 0 86 86" version="1.1" xmlns="http://www.w3.org/2000/svg" xmlns:xlink="http://www.w3.org/1999/xlink">
    <path d="M43,0.3 C19.418,0.3 0.3,19.418 0.3,43 L0.3,84.277 C0.3,85.063 0.937,85.7 1.723,85.7 L43,85.7 C66.585,85.7 85.7,66.582 85.7,43 C85.7,19.418 66.585,0.3 43,0.3 Z" id="bg" fill-opacity="0.204185" fill="#000000" fill-rule="nonzero"></path>
    <path d="M55.1114644,55.5558621 C53.6522404,63.9093837 49.6965916,71.9123191 43.2441493,78.3647614 L43.340973,78.2650781 L14.0569027,107.552008 C13.8753249,107.733586 13.6569159,107.855841 13.4257417,107.918775 L44.0506897,55.5560781 Z" id="8" fill-opacity="0.6" fill="#000000" transform="translate(34.267658, 81.737666) rotate(45.000000) translate(-34.267658, -81.737666) "></path>
    <path d="M50.2474623,40.5461531 L19.6209839,92.9092651 C19.377029,92.9753853 19.1189243,92.9754747 18.8749311,92.9095332 L-11.7525377,40.5461531 L50.2474623,40.5461531 Z" id="7" fill-opacity="0.2" fill="#FFFFFF" transform="translate(19.247462, 66.752538) rotate(45.000000) translate(-19.247462, -66.752538) "></path>
    <path d="M-5.52080772,25.5510187 L25.1056707,77.9141308 C24.87393,77.851321 24.6549577,77.728927 24.4729793,77.5469486 L24.4832889,77.5560187 L-4.8125322,48.261123 C-11.2063244,41.8263922 -15.1290911,33.8621952 -16.5808321,25.5507256 L-5.52080772,25.5510187 Z" id="6" fill-opacity="0.2" fill="#000000" transform="translate(4.262599, 51.732607) rotate(45.000000) translate(-4.262599, -51.732607) "></path>
    <path d="M64.1166562,49.8187076 L79.6778537,65.9774132 C79.9697238,69.5924145 79.8029439,73.2375041 79.177485,76.8181816 L68.1166562,76.8187076 L64.1166562,49.8187076 Z" id="5" fill-opacity="0.4" fill="#000000" fill-rule="nonzero" transform="translate(71.966906, 63.318790) rotate(45.000000) translate(-71.966906, -63.318790) "></path>
    <polygon id="4" fill-opacity="0.1" fill="#000000" transform="translate(59.698485, 48.221825) scale(-1, 1) rotate(-45.000000) translate(-59.698485, -48.221825) " points="48.1984848 36.7218254 44.1984848 63.7218254 75.1984848 32.7218254"></polygon>
    <polygon id="3" fill-opacity="0.4" fill="#FFFFFF" transform="translate(48.738330, 37.261670) rotate(45.000000) translate(-48.738330, -37.261670) " points="17.7383297 52.7616703 48.7383297 21.7616703 79.7383297 52.7616703"></polygon>
    <polygon id="2" fill-opacity="0.85" fill="#FFFFFF" transform="translate(37.778175, 26.301515) rotate(45.000000) translate(-37.778175, -26.301515) " points="26.2781746 14.8015152 22.2781746 41.8015152 53.2781746 10.8015152"></polygon>
    <path d="M30.5312601,0.533258799 L26.5312601,27.5332588 L15.4711819,27.5326572 C14.8457169,23.9516065 14.6789654,20.3060917 14.9709277,16.6906683 L30.5312601,0.533258799 Z" id="1" fill-opacity="0.2" fill="#FFFFFF" fill-rule="nonzero" transform="translate(22.681408, 14.033459) rotate(45.000000) translate(-22.681408, -14.033459) "></path>
</svg>